<svg width="1500" height="1500" viewBox="0 0 1500 1500" fill="none" xmlns="http://www.w3.org/2000/svg">
<path fill-rule="evenodd" clip-rule="evenodd" d="M977.29 276.965C977.29 276.965 1191.83 218.841 1238.85 202.601C1285.86 186.361 1312.35 175.249 1355.09 150.461C1397.83 125.673 1439.71 74.3876 1439.71 74.3876C1458.08 192.977 1440.95 259.216 1396.98 342.781C1342.21 418.755 1292.95 453.846 1158.5 490.654C874.964 562.124 788.898 600.298 731.12 665.879C724.705 554.556 733.048 500.416 769.584 418.854C808.048 358.167 879.408 311.595 977.29 276.965ZM707.187 949.658C723.427 693.231 916.602 665.024 916.602 665.024C1047.1 657.047 1328.08 621.774 1408.09 544.504C1408.09 749.645 1274.75 836.83 1215.77 850.506C1182.06 854.543 1149.71 858.295 1118.8 861.881L1118.77 861.886L1118.76 861.886L1118.76 861.886C907.522 886.394 763.257 903.132 707.187 949.658ZM847.367 983.849C655.218 983.849 468.14 1259.65 398.62 1400.12C666.565 1176.56 784.39 1178.56 838.436 1179.48C841.63 1179.54 844.601 1179.59 847.367 1179.59C1168.76 1179.59 1184.14 1006.93 1184.14 953.077C1149.95 983.849 984.128 983.849 847.367 983.849ZM136.21 664.17C127.947 626.56 131.765 541.939 213.138 504.33C230.593 498.871 246.866 493.794 262.046 489.058C451.28 430.017 470.741 423.945 496.062 391.502C496.062 394.9 496.073 398.239 496.084 401.523C496.241 447.813 496.361 483.512 464.436 527.409C544.783 559.889 602.052 605.191 640.516 677.846C668.723 758.193 650.557 947.849 509.738 1079.58C371.268 1215.49 308.87 1390.71 304.597 1426.61C288.356 1316.35 293.485 1248.82 371.268 1079.58C499.481 845.378 262.714 647.074 74.6671 873.585C49.5942 835.406 26.8007 740.072 136.21 664.17Z" fill="black"/>
</svg>
